# xmcd
#
# Track frame offsets: 
#        150
#        7355
#        22234
#        26708
#        37798
#        56173
#        60288
#        72743
#        100351
#        101251
#        102151
#        103051
#
# Disc length: 2106 seconds
#
# Revision: 1
# Processed by: cddbd v1.5.2PL0 Copyright (c) Steve Scherf et al.
# Submitted via: ExactAudioCopy v0.99pb4
#
DISCID=a308380c
DTITLE=The Number Twelve Looks Like You - Put on Your Rose Red Glasses
DYEAR=2003
DGENRE=Metal
TTITLE0=Don't Get Blood on My Prada Shoes
TTITLE1=Jesus and Tori
TTITLE2=Document. Grace Budd
TTITLE3=Blue Dress
TTITLE4=If These Bullets Could Talk
TTITLE5=Bambi the Hooker and a Case of Beer
TTITLE6=Empty Calm
TTITLE7=Civeta Dei
TTITLE8=Die
TTITLE9=Die
TTITLE10=Die
TTITLE11=Die
EXTD=
EXTT0=
EXTT1=
EXTT2=
EXTT3=
EXTT4=
EXTT5=
EXTT6=
EXTT7=
EXTT8=
EXTT9=
EXTT10=
EXTT11=
PLAYORDER=
